<?xml version="1.0" encoding="utf-8"?>
<!-- Generator: Adobe Illustrator 23.0.2, SVG Export Plug-In . SVG Version: 6.00 Build 0)  -->
<svg viewBox="0 0 440 305" fill="none" xmlns="http://www.w3.org/2000/svg">
<path class="myHexagon" d="M176.6,175.5c-1.7,0-3.5-0.4-5-1.3l-64-37c-3.1-1.8-5-5.1-5-8.7v-74c0-3.6,1.9-6.9,5-8.7l64-37c3.1-1.8,6.9-1.8,10,0l64,37c3.1,1.8,5,5.1,5,8.7v74c0,3.6-1.9,6.9-5,8.7l-64,37C180.1,175.1,178.4,175.5,176.6,175.5zM176.6,11.6c-1,0-2.1,0.3-3,0.8l-64,37c-1.9,1.1-3,3.1-3,5.2v74c0,2.1,1.1,4.1,3,5.2l64,37c1.9,1.1,4.1,1.1,6,0l64-37c1.9-1.1,3-3.1,3-5.2v-74c0-2.1-1.1-4.1-3-5.2l-64-37C178.7,11.9,177.7,11.6,176.6,11.6z"/>
<path class="myHexagon" d="M166.6,169.5c-1.7,0-3.5-0.4-5-1.3l-64-37c-3.1-1.8-5-5.1-5-8.7v-74c0-3.6,1.9-6.9,5-8.7l64-37c3.1-1.8,6.9-1.8,10,0l64,37c3.1,1.8,5,5.1,5,8.7v74c0,3.6-1.9,6.9-5,8.7l-64,37C170.1,169.1,168.4,169.5,166.6,169.5zM99.6,43.4c-1.9,1.1-3,3.1-3,5.2v74c0,2.1,1.1,4.1,3,5.2l64,37c1.9,1.1,4.2,1.1,6,0l64-37c1.9-1.1,3-3.1,3-5.2v-74c0-2.1-1.1-4.1-3-5.2l-64-37c-1.9-1.1-4.1-1.1-6,0L99.6,43.4z"/>
<path class="letter" d="M182.8,108.8h-26.6V99h7.4l-4-12.2h-21.1L134.4,99h7.2v9.8H115V99h7.9l16.4-45.7h-7.2v-9.1h34v9.1h-7.4L175.5,99h7.3V108.8z M158.3,106.8h22.6V101h-6.7l-18.3-49.7h8.3v-5.1h-30v5.1h8L124.2,101H117v5.8h22.7V101h-8l5.5-16.2h24l5.3,16.2h-8.2V106.8z M159.4,79.5h-20.6l9.3-28.2h2.3L159.4,79.5z M141.5,77.5h15.1l-7.4-23.3L141.5,77.5z" stroke="white" stroke-width="3"/>
<path class="letter" d="M203.3,135.3c-5.2,0-10.1-1.7-14.4-5v4H179v-24.7h9.8v6.3c3.6,6.4,8.1,9.5,13.7,9.5c2.9,0,5.2-0.8,7.2-2.6c1.9-1.7,2.9-3.9,2.9-6.7c0-2.7-0.7-4.5-2.2-5.6c-1.6-1.2-4.8-2.5-9.5-3.7c-5.7-1.5-9.9-3-12.7-4.3c-2.9-1.4-5.2-3.4-6.9-6.1c-1.7-2.6-2.6-5.8-2.6-9.3c0-5.5,1.9-10,5.6-13.3c3.7-3.3,8.3-5,13.8-5c4.6,0,8.9,1.3,13,3.9v-3.3h9.7v21h-9.7v-5.1c-3-4.4-7-6.5-12.3-6.5c-3.2,0-5.6,0.7-7.2,2.1c-1.6,1.4-2.4,3-2.4,4.9c0,1.5,0.4,2.7,1.2,3.8c0.8,1.1,1.9,1.9,3.1,2.5c1.4,0.6,4.2,1.4,8.4,2.5c5.6,1.4,9.7,2.8,12.2,4.1c2.7,1.3,5,3.5,6.8,6.6c1.9,3.1,2.9,6.6,2.9,10.6c0,5.6-2,10.3-6,14C214,133.5,209.1,135.3,203.3,135.3z M186.9,125.9l1.7,1.5c4.4,3.9,9.3,5.9,14.7,5.9c5.3,0,9.7-1.7,13.3-5c3.6-3.3,5.3-7.4,5.3-12.5c0-3.6-0.9-6.8-2.6-9.5c-1.7-2.7-3.7-4.7-6-5.9c-2.4-1.2-6.4-2.5-11.8-3.9c-4.3-1.1-7.2-1.9-8.6-2.6c-1.6-0.7-2.9-1.7-4-3.1c-1.1-1.4-1.6-3.1-1.6-5c0-2.5,1-4.6,3.1-6.4c2-1.7,4.9-2.6,8.5-2.6c6,0,10.7,2.6,14.1,7.7l0.2,0.3v3.7h5.7v-17h-5.7v5.2l-1.6-1.2c-4.1-3.1-8.6-4.7-13.4-4.7c-5,0-9.2,1.5-12.5,4.4c-3.3,3-4.9,6.8-4.9,11.8c0,3.2,0.8,6,2.2,8.2c1.5,2.3,3.5,4.1,6.1,5.4c2.6,1.3,6.8,2.7,12.3,4.2c5,1.3,8.3,2.7,10.2,4.1c2,1.5,3,3.9,3,7.2c0,3.3-1.2,6.1-3.5,8.2c-2.3,2-5.2,3.1-8.5,3.1c-6.4,0-11.7-3.6-15.6-10.7l-0.1-0.2v-4.8H181v20.7h5.8V125.9z" stroke="white" stroke-width="3"/>
<mask id="path-5-inside-1" fill="white">
  <path d="M49.4,217.2h2.8c1.4,0.1,2.1,0.6,2.1,1.3c0,0.5-0.5,0.7-1.5,0.7l-2-0.1l-2.9,0l-6.3,8c-4.3,5.3-6.6,8-7.1,8c-0.4,0-0.8-0.3-1.1-0.9c-0.3-0.5-0.5-1-0.5-1.4c0-0.6,3.5-5.2,10.5-13.7H41c-3.4,0-8.4,0.2-15,0.6l-10.5,8.9l-4.1,3.6c-2.2,1.9-3.5,2.9-4,2.9c-0.6,0-0.9-0.3-0.9-0.9c0-0.7,3-3.6,8.9-8.6l7.1-5.9c-9.5,0.5-14.4,0.9-14.7,1.4v0c0,0.4,1.5,0.6,4.4,0.6l4.1-0.1c0.6,0,0.8,0.1,0.8,0.4c0,0.6-2.2,0.9-6.7,0.9c-3.8,0-5.8-0.5-5.8-1.5c0-1.2,1.1-2.1,3.4-2.5c0.6-0.1,2.2-0.3,4.8-0.5l12.1-0.8c4.9-4,11.8-9.2,20.9-15.7c11.5-8.2,18.4-12.2,20.6-12.2c1.1,0,1.7,0.7,1.7,2.2c0,1.2-1.5,3.6-4.4,7.2L49.4,217.2zM45,217.2l14.5-17.6l2.7-3.3c1.2-1.5,1.9-2.6,2.3-3.4l0-0.1c0-0.2-0.1-0.3-0.3-0.3c-1,0-7.1,4.1-18.4,12.4l-17,12.6L45,217.2z" />
  <path d="M64.1,221.2l-9.9,8.2c-5,3.8-8.5,5.7-10.5,5.7c-0.2,0-0.4-0.1-0.4-0.4c0-0.4,0.2-0.6,0.6-0.7c1.5-0.4,2.7-0.8,3.5-1.2c1.3-0.7,4-2.7,8.2-6c1.9-1.5,4.6-3.8,8.1-7c1.3-1.4,2.3-2.1,2.8-2.1c1.2,0,1.7,0.4,1.7,1.1c0,0.9-1.2,2.9-3.5,5.9c4.5-4.1,7.6-6.2,9.3-6.2c0.6,0,1.1,0.2,1.6,0.5c0.5,0.4,0.7,0.8,0.7,1.4c0,0.8-0.6,2-1.7,3.6c4.2-4.1,7.4-6.2,9.8-6.2c1.4,0,2.1,0.6,2.1,1.7c0,1.4-1.7,3.9-5.1,7.4c-3.4,3.5-5.1,5.5-5.1,6.2c0,0.5,0.4,0.8,1.1,0.8c0.7,0,1.1,0.2,1.1,0.5c0,0.4-0.6,0.6-1.8,0.6c-1.6,0-2.4-0.7-2.4-2.1c0-1.6,1.5-4.1,4.4-7.4c2.9-3.3,4.4-5.2,4.4-5.6c0-0.2-0.2-0.4-0.5-0.4c-1.2,0-3.9,1.9-8.1,5.8c-3.4,3.2-6,5.8-7.6,7.8c-1,1.2-1.7,1.9-2.2,1.9c-0.8,0-1.2-0.4-1.2-1.1c0-0.8,1.6-2.9,4.9-6.6c3.2-3.6,4.9-5.8,4.9-6.7c0-0.4-0.2-0.6-0.6-0.6c-1.1,0-3.5,1.8-7.3,5.4c-3.3,3.1-5.6,5.5-6.9,7.2c-1.1,1.4-2,2-2.8,2c-0.7,0-1.1-0.3-1.1-0.9c0-0.8,1.4-3,4.3-6.5L64.1,221.2z"/>
  <path d="M92.8,233.1c0,0.6,0.6,0.8,1.8,0.8c0.3,0,0.4,0.2,0.4,0.5c0,0.4-0.7,0.6-2.1,0.6c-1.6,0-2.3-0.7-2.3-2.2c0-1.7,2.3-5.4,6.9-10.9l-8.4,6.9c-5,4.1-8.6,6.1-10.9,6.1c-0.2,0-0.4-0.1-0.4-0.4c0-0.4,0.2-0.6,0.6-0.7c1.3-0.2,2.5-0.7,3.6-1.3c1.3-0.7,4.2-2.8,8.5-6.3l9.5-7.9c0.4-0.1,1-0.2,1.7-0.2c0.7,0,1.1,0.4,1.1,1.2c0,0.9-1.7,3.2-5,7C94.4,230.2,92.8,232.5,92.8,233.1z M106.4,211.7c-1,0-1.5-0.5-1.5-1.5c0-0.8,0.5-1.6,1.5-2.3c0.9-0.6,1.8-0.9,2.7-0.9c1.1,0,1.6,0.6,1.6,1.8c0,0.8-0.5,1.6-1.6,2.2C108.3,211.5,107.3,211.7,106.4,211.7z"/>
  <path d="M119.2,214.8l-11.1,0.4c-0.6,0-0.9-0.2-0.9-0.5c0-0.3,0.5-0.5,1.5-0.6c1.4-0.2,3.4-0.4,6-0.6c2.9-0.2,4.9-0.3,6-0.5l4.4-5.3c2.4-2.8,3.8-4.2,4.3-4.2c0.6,0,0.9,0.4,0.9,1.2c0,0.8-1.9,3.6-5.6,8.3c2.2-0.1,4-0.2,5.4-0.2c0.9,0,1.4,0.2,1.4,0.6c0,0.4-1.1,0.7-3.4,0.8l-4.7,0.2l-6.9,8.6c-4.4,5.7-6.5,9-6.5,10.1c0,0.5,0.4,0.8,1.1,0.8c0.7,0,1.1,0.2,1.1,0.5c0,0.4-0.5,0.6-1.4,0.6c-1.8,0-2.8-0.7-2.8-2.2c0-1.2,0.6-2.9,1.8-5l2.7-4.5l-9.2,7.2c-3.8,3-6.8,4.5-8.8,4.5c-0.2,0-0.4-0.1-0.4-0.4c0-0.4,0.2-0.6,0.6-0.7c0.7-0.1,1.8-0.5,3.2-1.1c1.4-0.7,4.5-2.9,9.2-6.7c3.5-2.7,5.7-4.5,6.6-5.3C115.4,219.3,117.2,217.3,119.2,214.8z"/>
  <path d="M176.1,218.7c0,2.2-1.6,4.8-4.9,7.8c-3.4,3.1-7.5,5.5-12.4,7.3c-4.6,1.6-9.3,2.4-14.1,2.4c-6.6,0-9.8-2-9.8-5.9c0-2.4,1.8-4.5,5.5-6.4c3.2-1.7,6.1-2.6,8.8-2.6c0.8,0,1.3,0.3,1.3,0.8c0,0.4-0.4,0.6-1.3,0.7c-2.5,0.4-4.9,1.1-7.3,2.2c-3.3,1.4-4.9,3.1-4.9,4.9c0,2.2,2.5,3.3,7.6,3.3c4.1,0,8.6-0.8,13.3-2.5c4.8-1.7,8.8-3.8,11.9-6.5c3-2.6,4.5-4.5,4.5-5.8c0-1.3-2-2.1-6.1-2.6c-6.7-0.8-10.5-1.3-11.3-1.5c-4.1-1-6.1-2.7-6.1-5.3c0-3.2,2.4-6.2,7.1-9.1c3.9-2.4,8.9-4.4,14.9-6c5.3-1.4,9.5-2.1,12.7-2.1c4.1,0,6.1,1.3,6.1,3.8c0,2.2-1.9,4.7-5.7,7.6c-3.6,2.8-6.6,4.2-8.9,4.2c-1.9,0-2.8-0.6-2.8-1.9c0-1.1,1.1-2.3,3.2-3.8c2-1.4,3.6-2,4.7-2c0.4,0,0.6,0.1,0.6,0.4l-3.2,1.7c-2.1,1.2-3.2,2-3.3,2.5c0.1,0.1,0.3,0.2,0.5,0.2c1.5,0,3.9-1,7.3-3c3.6-2.1,5.4-3.8,5.4-5.2c0-1.2-1.4-1.8-4.3-1.8c-3.3,0-8,1-14,2.9c-4,1.3-7.6,2.6-10.6,4.1c-5.3,2.5-7.9,4.7-7.9,6.7c0,1.3,1.7,2.2,5,2.9l9.9,1.3c3.9,0.6,6.2,1.4,7.1,2.5C175.7,216.2,176.1,217.4,176.1,218.7z"/>
  <path d="M178.4,228.5c-5.5,4.3-9.3,6.5-11.4,6.5c-0.2,0-0.4-0.1-0.4-0.4c0-0.4,0.2-0.6,0.7-0.7c1.9-0.3,4.6-1.8,8-4.5l4-3.1l6.4-5.1c2.9-2,5.4-3,7.5-3c1.5,0,2.4,0.8,2.6,2.3c0.8-0.8,1.4-1.1,1.7-1.1c0.7,0,1,0.3,1,0.8c0,0.7-1.6,2.9-4.7,6.6c-3.2,3.7-4.7,5.9-4.7,6.5c0,0.4,0.3,0.6,1,0.7c0.7,0,1,0.2,1,0.5c0,0.4-0.7,0.6-2.1,0.6c-1.4,0-2.1-0.6-2.1-1.8c0-1,0.6-2.4,1.7-4.2l-3.8,3.3c-1.9,1.4-3.4,2.1-4.5,2.1c-1.8,0-2.7-0.9-2.7-2.7C177.7,230.8,178,229.7,178.4,228.5z M193.8,219.4c-1.2,0-3.7,1.8-7.5,5.5c-3.8,3.6-5.7,6.1-5.7,7.3c0,0.6,0.3,0.8,0.8,0.8c1.2,0,3.7-1.8,7.6-5.3c3.9-3.6,5.8-6,5.8-7.2C194.7,219.8,194.4,219.4,193.8,219.4z"/>
  <path d="M207.4,225l-7.6,5.8c-4.1,2.8-7.1,4.2-9.1,4.2c-0.2,0-0.4-0.1-0.4-0.4c0-0.4,0.4-0.6,1.1-0.8c0.9-0.1,1.9-0.5,3-1.1c1.4-0.7,3.7-2.3,7-4.7c2.4-1.7,4.9-3.7,7.6-5.8c3.1-4.6,7.3-9.6,12.7-15c6-6,10-9,12-9c0.9,0,1.4,0.5,1.4,1.5c0,2.6-3,6.8-9.1,12.5c-3.9,3.6-8,7.1-12.6,10.4c-1.1,0.8-2.4,2.5-3.9,5c-1.6,2.6-2.4,4.4-2.4,5.5c0,0.5,0.6,0.8,1.7,0.8c0.3,0,0.4,0.2,0.4,0.5c0,0.4-0.5,0.6-1.6,0.6c-1.7,0-2.6-0.9-2.6-2.6C205,230.8,205.8,228.3,207.4,225zM233.5,199.3c-0.8,0-4,3.1-9.5,9.4c-5.3,6-8.7,10.2-10.1,12.4c13.5-11,20.2-18.1,20.2-21.4C234.1,199.5,233.9,199.3,233.5,199.3z"/>
  <path d="M231.7,229.2c-3.6,3.5-6.2,5.3-7.9,5.3c-1.3,0-1.9-0.7-1.9-2.1c0-1.7,0.7-3.5,2.2-5.6l4-4.7l-8.8,7.3c-5,3.8-8.5,5.7-10.5,5.7c-0.2,0-0.4-0.1-0.4-0.4c0-0.4,0.3-0.6,0.9-0.7c0.8-0.1,1.7-0.5,2.7-0.9c1.2-0.6,3.7-2.4,7.6-5.4c1.8-1.4,4.4-3.5,7.8-6.5c0.6-0.6,1.5-1.4,2.8-2.4c0.5-0.3,1-0.5,1.4-0.5c1.2,0,1.8,0.4,1.8,1.2c0,0.8-1.4,2.8-4.3,6c-2.9,3.2-4.3,5.5-4.3,6.8c0,0.4,0.2,0.5,0.6,0.5c1.2,0,4-2.4,8.3-7.1c4.3-4.7,6.7-7.1,7.3-7.1c0.3,0,0.6,0.1,0.9,0.4s0.4,0.6,0.4,0.9c0,0.5-1.6,2.6-4.8,6.3c-3.2,3.7-4.8,6-4.8,7.1c0,0.5,0.4,0.7,1.1,0.7s1.1,0.2,1.1,0.5c0,0.4-0.5,0.6-1.6,0.6c-1.7,0-2.6-0.7-2.6-2C230.4,232.2,230.8,230.9,231.7,229.2z"/>
  <path d="M254.7,225.7c5.7-4.8,9.7-7.2,11.9-7.2c1.5,0,2.2,0.7,2.2,2.1c0,1.2-1.7,3.4-5,6.6s-5,5.1-5,5.8s0.4,1,1.1,1.1c0.8,0.1,1.1,0.2,1.1,0.5c0,0.4-0.7,0.6-2.2,0.6c-1.7,0-2.6-0.8-2.6-2.3c0-1.3,0.8-2.9,2.5-4.9c0.8-1,2.4-2.6,4.6-4.7c1.6-1.6,2.5-2.5,2.5-2.9c0-0.3-0.2-0.4-0.6-0.4c-1.2,0-3.7,1.6-7.7,4.7c-3.3,2.6-5.7,4.7-7.3,6.4c-2,2.1-3.2,3.2-3.7,3.2c-0.3,0-0.6-0.2-0.9-0.5c-0.3-0.3-0.4-0.7-0.4-1c0-0.5,1.4-2.4,4.3-5.8l5.1-6l-7.9,6.4l-5.8,4.5c-3,2-5.2,3-6.8,3c-0.3,0-0.4-0.1-0.4-0.4c0-0.4,0.3-0.6,0.9-0.7c0.8-0.1,1.7-0.5,2.8-0.9c1.5-0.7,4.6-2.9,9.2-6.6c4.2-3.4,7.2-6,9-7.8c0.3-0.3,0.8-0.7,1.5-1.1c0.3-0.1,0.7-0.2,1.1-0.2c0.4,0,0.7,0.1,1.1,0.4c0.4,0.2,0.5,0.5,0.5,0.9C259.6,218.9,258,221.3,254.7,225.7z"/>
  <path d="M281.2,220.7l-8.3,7l-5.7,4.5c-2.7,1.9-4.9,2.8-6.6,2.8c-0.2,0-0.4-0.1-0.4-0.4c0-0.4,0.2-0.6,0.6-0.7c2.7-0.6,6.4-2.9,11-6.8l8.8-7.4c2-1.7,5.3-5,9.8-10l8.7-9.9c1.4-1.6,2.3-2.4,2.9-2.4c0.7,0,1.1,0.4,1.1,1.1c0,0.9-0.9,2.5-2.7,4.6l-3.8,4.4l-12.3,14.2c3.1-2.2,5.3-3.3,6.7-3.3c1.7,0,2.5,0.8,2.5,2.5c0,1.9-1.6,3.4-4.9,4.8c-2.6,1.1-5.1,1.6-7.4,1.6c0.7,1.8,1.7,3.7,2.9,6c0.4,0.5,1,0.7,1.9,0.7c0.3,0,0.4,0.2,0.4,0.5c0,0.5-0.8,0.7-2.4,0.7c-0.8,0-1.5-0.2-2-0.6c-0.5-0.4-1.6-2.4-3.4-6.1l-3.1,3.7c-1.7,2-2.8,3-3.1,3c-0.9,0-1.3-0.5-1.3-1.5c0-0.6,1.6-2.9,4.9-6.8L281.2,220.7z M280.3,226.6c3.1-0.4,5.6-1.2,7.6-2.5s3-2.4,3-3.3c0-0.5-0.3-0.7-0.9-0.7C287.8,220,284.5,222.2,280.3,226.6z"/>
  <path d="M304.3,227.9c7.5-6.6,12.5-10,15-10c1.1,0,1.7,0.6,1.7,1.8c0,1.3-1.8,3.6-5.3,7.2c-3.5,3.5-5.3,5.6-5.3,6.2c0,0.6,0.6,0.9,1.7,0.9c0.3,0,0.4,0.2,0.4,0.5c0,0.4-0.5,0.6-1.5,0.6c-1.8,0-2.7-0.8-2.7-2.3c0-1.7,1.4-4,4.1-6.8c3.4-3.5,5.2-5.4,5.5-5.9c0-0.2-0.1-0.4-0.4-0.4c-1.1,0-4,2-8.7,5.9c-3.5,2.9-6.2,5.4-8.4,7.5c-0.8,0.8-1.5,1.5-2.1,1.9c-0.3,0-0.6-0.2-0.9-0.6c-0.3-0.4-0.4-0.8-0.4-1.1c0-0.5,1.4-2.5,4.2-6.1l4.9-6.2c-2,1.9-4.5,4-7.5,6.3l-5.9,4.5c-3,2-5.3,3.1-6.9,3.1c-0.2,0-0.4-0.1-0.4-0.4c0-0.4,0.2-0.6,0.6-0.7c1.7-0.4,3.2-1,4.5-1.9c2.4-1.5,6-4.3,10.9-8.3l6.2-5.3c1.3-1.1,5-5.2,11-12.2c5.4-6.3,8.4-9.5,8.9-9.5c0.7,0,1.1,0.5,1.1,1.4c0,0.6-2.1,3.4-6.2,8.3L304.3,227.9z"/>
  <path d="M323.5,230c-1,0.2-3,1.2-5.8,2.8c-2.5,1.4-4.4,2.2-5.7,2.2c-0.2,0-0.4-0.1-0.4-0.4c0-0.4,0.3-0.6,0.8-0.7c1.3-0.2,3-1,5.3-2.3c2.5-1.4,4.6-2.3,6.2-2.7c0.9-2.3,2.9-4.7,5.9-7.2c3.2-2.7,5.8-4.1,8.1-4.1c1.6,0,2.5,0.7,2.5,2.1c0,1.8-1.7,3.8-5.2,6c-2.6,1.6-5.2,2.9-7.9,3.8c-0.3,0.7-0.4,1.3-0.4,2.1c0,1.1,0.4,1.8,1.1,2.1c0.4,0.1,1.1,0.2,2.1,0.3c0.7,0,1.1,0.2,1.1,0.5c0,0.5-1.3,0.8-3.8,0.8c-2.7,0-4-1.2-4-3.5C323.3,231.2,323.4,230.7,323.5,230z M327.6,228.3c1.9-0.9,3.9-2.2,6-3.8c2.8-2.1,4.2-3.7,4.2-4.9c0-0.5-0.2-0.7-0.7-0.7c-1.3,0-3.2,1.2-5.5,3.7C329.6,224.8,328.2,226.7,327.6,228.3z"/>
</mask>

<path class="signature1" d="M49.4,217.2h2.8c1.4,0.1,2.1,0.6,2.1,1.3c0,0.5-0.5,0.7-1.5,0.7l-2-0.1l-2.9,0l-6.3,8c-4.3,5.3-6.6,8-7.1,8c-0.4,0-0.8-0.3-1.1-0.9c-0.3-0.5-0.5-1-0.5-1.4c0-0.6,3.5-5.2,10.5-13.7H41c-3.4,0-8.4,0.2-15,0.6l-10.5,8.9l-4.1,3.6c-2.2,1.9-3.5,2.9-4,2.9c-0.6,0-0.9-0.3-0.9-0.9c0-0.7,3-3.6,8.9-8.6l7.1-5.9c-9.5,0.5-14.4,0.9-14.7,1.4v0c0,0.4,1.5,0.6,4.4,0.6l4.1-0.1c0.6,0,0.8,0.1,0.8,0.4c0,0.6-2.2,0.9-6.7,0.9c-3.8,0-5.8-0.5-5.8-1.5c0-1.2,1.1-2.1,3.4-2.5c0.6-0.1,2.2-0.3,4.8-0.5l12.1-0.8c4.9-4,11.8-9.2,20.9-15.7c11.5-8.2,18.4-12.2,20.6-12.2c1.1,0,1.7,0.7,1.7,2.2c0,1.2-1.5,3.6-4.4,7.2L49.4,217.2zM45,217.2l14.5-17.6l2.7-3.3c1.2-1.5,1.9-2.6,2.3-3.4l0-0.1c0-0.2-0.1-0.3-0.3-0.3c-1,0-7.1,4.1-18.4,12.4l-17,12.6L45,217.2z" stroke="white" stroke-width="6" mask="url(#path-5-inside-1)"/>
<path class="signature2" d="M64.1,221.2l-9.9,8.2c-5,3.8-8.5,5.7-10.5,5.7c-0.2,0-0.4-0.1-0.4-0.4c0-0.4,0.2-0.6,0.6-0.7c1.5-0.4,2.7-0.8,3.5-1.2c1.3-0.7,4-2.7,8.2-6c1.9-1.5,4.6-3.8,8.1-7c1.3-1.4,2.3-2.1,2.8-2.1c1.2,0,1.7,0.4,1.7,1.1c0,0.9-1.2,2.9-3.5,5.9c4.5-4.1,7.6-6.2,9.3-6.2c0.6,0,1.1,0.2,1.6,0.5c0.5,0.4,0.7,0.8,0.7,1.4c0,0.8-0.6,2-1.7,3.6c4.2-4.1,7.4-6.2,9.8-6.2c1.4,0,2.1,0.6,2.1,1.7c0,1.4-1.7,3.9-5.1,7.4c-3.4,3.5-5.1,5.5-5.1,6.2c0,0.5,0.4,0.8,1.1,0.8c0.7,0,1.1,0.2,1.1,0.5c0,0.4-0.6,0.6-1.8,0.6c-1.6,0-2.4-0.7-2.4-2.1c0-1.6,1.5-4.1,4.4-7.4c2.9-3.3,4.4-5.2,4.4-5.6c0-0.2-0.2-0.4-0.5-0.4c-1.2,0-3.9,1.9-8.1,5.8c-3.4,3.2-6,5.8-7.6,7.8c-1,1.2-1.7,1.9-2.2,1.9c-0.8,0-1.2-0.4-1.2-1.1c0-0.8,1.6-2.9,4.9-6.6c3.2-3.6,4.9-5.8,4.9-6.7c0-0.4-0.2-0.6-0.6-0.6c-1.1,0-3.5,1.8-7.3,5.4c-3.3,3.1-5.6,5.5-6.9,7.2c-1.1,1.4-2,2-2.8,2c-0.7,0-1.1-0.3-1.1-0.9c0-0.8,1.4-3,4.3-6.5L64.1,221.2z" stroke="white" stroke-width="6" mask="url(#path-5-inside-1)"/>
<path class="signature3" d="M92.8,233.1c0,0.6,0.6,0.8,1.8,0.8c0.3,0,0.4,0.2,0.4,0.5c0,0.4-0.7,0.6-2.1,0.6c-1.6,0-2.3-0.7-2.3-2.2c0-1.7,2.3-5.4,6.9-10.9l-8.4,6.9c-5,4.1-8.6,6.1-10.9,6.1c-0.2,0-0.4-0.1-0.4-0.4c0-0.4,0.2-0.6,0.6-0.7c1.3-0.2,2.5-0.7,3.6-1.3c1.3-0.7,4.2-2.8,8.5-6.3l9.5-7.9c0.4-0.1,1-0.2,1.7-0.2c0.7,0,1.1,0.4,1.1,1.2c0,0.9-1.7,3.2-5,7C94.4,230.2,92.8,232.5,92.8,233.1z M106.4,211.7c-1,0-1.5-0.5-1.5-1.5c0-0.8,0.5-1.6,1.5-2.3c0.9-0.6,1.8-0.9,2.7-0.9c1.1,0,1.6,0.6,1.6,1.8c0,0.8-0.5,1.6-1.6,2.2C108.3,211.5,107.3,211.7,106.4,211.7z" stroke="white" stroke-width="6" mask="url(#path-5-inside-1)"/>
<path class="signature4" d="M119.2,214.8l-11.1,0.4c-0.6,0-0.9-0.2-0.9-0.5c0-0.3,0.5-0.5,1.5-0.6c1.4-0.2,3.4-0.4,6-0.6c2.9-0.2,4.9-0.3,6-0.5l4.4-5.3c2.4-2.8,3.8-4.2,4.3-4.2c0.6,0,0.9,0.4,0.9,1.2c0,0.8-1.9,3.6-5.6,8.3c2.2-0.1,4-0.2,5.4-0.2c0.9,0,1.4,0.2,1.4,0.6c0,0.4-1.1,0.7-3.4,0.8l-4.7,0.2l-6.9,8.6c-4.4,5.7-6.5,9-6.5,10.1c0,0.5,0.4,0.8,1.1,0.8c0.7,0,1.1,0.2,1.1,0.5c0,0.4-0.5,0.6-1.4,0.6c-1.8,0-2.8-0.7-2.8-2.2c0-1.2,0.6-2.9,1.8-5l2.7-4.5l-9.2,7.2c-3.8,3-6.8,4.5-8.8,4.5c-0.2,0-0.4-0.1-0.4-0.4c0-0.4,0.2-0.6,0.6-0.7c0.7-0.1,1.8-0.5,3.2-1.1c1.4-0.7,4.5-2.9,9.2-6.7c3.5-2.7,5.7-4.5,6.6-5.3C115.4,219.3,117.2,217.3,119.2,214.8z" stroke="white" stroke-width="6" mask="url(#path-5-inside-1)"/>
<path class="signature5" d="M176.1,218.7c0,2.2-1.6,4.8-4.9,7.8c-3.4,3.1-7.5,5.5-12.4,7.3c-4.6,1.6-9.3,2.4-14.1,2.4c-6.6,0-9.8-2-9.8-5.9c0-2.4,1.8-4.5,5.5-6.4c3.2-1.7,6.1-2.6,8.8-2.6c0.8,0,1.3,0.3,1.3,0.8c0,0.4-0.4,0.6-1.3,0.7c-2.5,0.4-4.9,1.1-7.3,2.2c-3.3,1.4-4.9,3.1-4.9,4.9c0,2.2,2.5,3.3,7.6,3.3c4.1,0,8.6-0.8,13.3-2.5c4.8-1.7,8.8-3.8,11.9-6.5c3-2.6,4.5-4.5,4.5-5.8c0-1.3-2-2.1-6.1-2.6c-6.7-0.8-10.5-1.3-11.3-1.5c-4.1-1-6.1-2.7-6.1-5.3c0-3.2,2.4-6.2,7.1-9.1c3.9-2.4,8.9-4.4,14.9-6c5.3-1.4,9.5-2.1,12.7-2.1c4.1,0,6.1,1.3,6.1,3.8c0,2.2-1.9,4.7-5.7,7.6c-3.6,2.8-6.6,4.2-8.9,4.2c-1.9,0-2.8-0.6-2.8-1.9c0-1.1,1.1-2.3,3.2-3.8c2-1.4,3.6-2,4.7-2c0.4,0,0.6,0.1,0.6,0.4l-3.2,1.7c-2.1,1.2-3.2,2-3.3,2.5c0.1,0.1,0.3,0.2,0.5,0.2c1.5,0,3.9-1,7.3-3c3.6-2.1,5.4-3.8,5.4-5.2c0-1.2-1.4-1.8-4.3-1.8c-3.3,0-8,1-14,2.9c-4,1.3-7.6,2.6-10.6,4.1c-5.3,2.5-7.9,4.7-7.9,6.7c0,1.3,1.7,2.2,5,2.9l9.9,1.3c3.9,0.6,6.2,1.4,7.1,2.5C175.7,216.2,176.1,217.4,176.1,218.7z" stroke="white" stroke-width="6" mask="url(#path-5-inside-1)"/>
<path class="signature6" d="M178.4,228.5c-5.5,4.3-9.3,6.5-11.4,6.5c-0.2,0-0.4-0.1-0.4-0.4c0-0.4,0.2-0.6,0.7-0.7c1.9-0.3,4.6-1.8,8-4.5l4-3.1l6.4-5.1c2.9-2,5.4-3,7.5-3c1.5,0,2.4,0.8,2.6,2.3c0.8-0.8,1.4-1.1,1.7-1.1c0.7,0,1,0.3,1,0.8c0,0.7-1.6,2.9-4.7,6.6c-3.2,3.7-4.7,5.9-4.7,6.5c0,0.4,0.3,0.6,1,0.7c0.7,0,1,0.2,1,0.5c0,0.4-0.7,0.6-2.1,0.6c-1.4,0-2.1-0.6-2.1-1.8c0-1,0.6-2.4,1.7-4.2l-3.8,3.3c-1.9,1.4-3.4,2.1-4.5,2.1c-1.8,0-2.7-0.9-2.7-2.7C177.7,230.8,178,229.7,178.4,228.5z M193.8,219.4c-1.2,0-3.7,1.8-7.5,5.5c-3.8,3.6-5.7,6.1-5.7,7.3c0,0.6,0.3,0.8,0.8,0.8c1.2,0,3.7-1.8,7.6-5.3c3.9-3.6,5.8-6,5.8-7.2C194.7,219.8,194.4,219.4,193.8,219.4z" stroke="white" stroke-width="6" mask="url(#path-5-inside-1)"/>
<path class="signature7" d="M207.4,225l-7.6,5.8c-4.1,2.8-7.1,4.2-9.1,4.2c-0.2,0-0.4-0.1-0.4-0.4c0-0.4,0.4-0.6,1.1-0.8c0.9-0.1,1.9-0.5,3-1.1c1.4-0.7,3.7-2.3,7-4.7c2.4-1.7,4.9-3.7,7.6-5.8c3.1-4.6,7.3-9.6,12.7-15c6-6,10-9,12-9c0.9,0,1.4,0.5,1.4,1.5c0,2.6-3,6.8-9.1,12.5c-3.9,3.6-8,7.1-12.6,10.4c-1.1,0.8-2.4,2.5-3.9,5c-1.6,2.6-2.4,4.4-2.4,5.5c0,0.5,0.6,0.8,1.7,0.8c0.3,0,0.4,0.2,0.4,0.5c0,0.4-0.5,0.6-1.6,0.6c-1.7,0-2.6-0.9-2.6-2.6C205,230.8,205.8,228.3,207.4,225zM233.5,199.3c-0.8,0-4,3.1-9.5,9.4c-5.3,6-8.7,10.2-10.1,12.4c13.5-11,20.2-18.1,20.2-21.4C234.1,199.5,233.9,199.3,233.5,199.3z" stroke="white" stroke-width="6" mask="url(#path-5-inside-1)"/>
<path class="signature8" d="M231.7,229.2c-3.6,3.5-6.2,5.3-7.9,5.3c-1.3,0-1.9-0.7-1.9-2.1c0-1.7,0.7-3.5,2.2-5.6l4-4.7l-8.8,7.3c-5,3.8-8.5,5.7-10.5,5.7c-0.2,0-0.4-0.1-0.4-0.4c0-0.4,0.3-0.6,0.9-0.7c0.8-0.1,1.7-0.5,2.7-0.9c1.2-0.6,3.7-2.4,7.6-5.4c1.8-1.4,4.4-3.5,7.8-6.5c0.6-0.6,1.5-1.4,2.8-2.4c0.5-0.3,1-0.5,1.4-0.5c1.2,0,1.8,0.4,1.8,1.2c0,0.8-1.4,2.8-4.3,6c-2.9,3.2-4.3,5.5-4.3,6.8c0,0.4,0.2,0.5,0.6,0.5c1.2,0,4-2.4,8.3-7.1c4.3-4.7,6.7-7.1,7.3-7.1c0.3,0,0.6,0.1,0.9,0.4s0.4,0.6,0.4,0.9c0,0.5-1.6,2.6-4.8,6.3c-3.2,3.7-4.8,6-4.8,7.1c0,0.5,0.4,0.7,1.1,0.7s1.1,0.2,1.1,0.5c0,0.4-0.5,0.6-1.6,0.6c-1.7,0-2.6-0.7-2.6-2C230.4,232.2,230.8,230.9,231.7,229.2z" stroke="white" stroke-width="6" mask="url(#path-5-inside-1)"/>
<path class="signature9" d="M254.7,225.7c5.7-4.8,9.7-7.2,11.9-7.2c1.5,0,2.2,0.7,2.2,2.1c0,1.2-1.7,3.4-5,6.6s-5,5.1-5,5.8s0.4,1,1.1,1.1c0.8,0.1,1.1,0.2,1.1,0.5c0,0.4-0.7,0.6-2.2,0.6c-1.7,0-2.6-0.8-2.6-2.3c0-1.3,0.8-2.9,2.5-4.9c0.8-1,2.4-2.6,4.6-4.7c1.6-1.6,2.5-2.5,2.5-2.9c0-0.3-0.2-0.4-0.6-0.4c-1.2,0-3.7,1.6-7.7,4.7c-3.3,2.6-5.7,4.7-7.3,6.4c-2,2.1-3.2,3.2-3.7,3.2c-0.3,0-0.6-0.2-0.9-0.5c-0.3-0.3-0.4-0.7-0.4-1c0-0.5,1.4-2.4,4.3-5.8l5.1-6l-7.9,6.4l-5.8,4.5c-3,2-5.2,3-6.8,3c-0.3,0-0.4-0.1-0.4-0.4c0-0.4,0.3-0.6,0.9-0.7c0.8-0.1,1.7-0.5,2.8-0.9c1.5-0.7,4.6-2.9,9.2-6.6c4.2-3.4,7.2-6,9-7.8c0.3-0.3,0.8-0.7,1.5-1.1c0.3-0.1,0.7-0.2,1.1-0.2c0.4,0,0.7,0.1,1.1,0.4c0.4,0.2,0.5,0.5,0.5,0.9C259.6,218.9,258,221.3,254.7,225.7z" stroke="white" stroke-width="6" mask="url(#path-5-inside-1)"/>
<path class="signature10" d="M281.2,220.7l-8.3,7l-5.7,4.5c-2.7,1.9-4.9,2.8-6.6,2.8c-0.2,0-0.4-0.1-0.4-0.4c0-0.4,0.2-0.6,0.6-0.7c2.7-0.6,6.4-2.9,11-6.8l8.8-7.4c2-1.7,5.3-5,9.8-10l8.7-9.9c1.4-1.6,2.3-2.4,2.9-2.4c0.7,0,1.1,0.4,1.1,1.1c0,0.9-0.9,2.5-2.7,4.6l-3.8,4.4l-12.3,14.2c3.1-2.2,5.3-3.3,6.7-3.3c1.7,0,2.5,0.8,2.5,2.5c0,1.9-1.6,3.4-4.9,4.8c-2.6,1.1-5.1,1.6-7.4,1.6c0.7,1.8,1.7,3.7,2.9,6c0.4,0.5,1,0.7,1.9,0.7c0.3,0,0.4,0.2,0.4,0.5c0,0.5-0.8,0.7-2.4,0.7c-0.8,0-1.5-0.2-2-0.6c-0.5-0.4-1.6-2.4-3.4-6.1l-3.1,3.7c-1.7,2-2.8,3-3.1,3c-0.9,0-1.3-0.5-1.3-1.5c0-0.6,1.6-2.9,4.9-6.8L281.2,220.7z M280.3,226.6c3.1-0.4,5.6-1.2,7.6-2.5s3-2.4,3-3.3c0-0.5-0.3-0.7-0.9-0.7C287.8,220,284.5,222.2,280.3,226.6z" stroke="white" stroke-width="6" mask="url(#path-5-inside-1)"/>
<path class="signature11" d="M304.3,227.9c7.5-6.6,12.5-10,15-10c1.1,0,1.7,0.6,1.7,1.8c0,1.3-1.8,3.6-5.3,7.2c-3.5,3.5-5.3,5.6-5.3,6.2c0,0.6,0.6,0.9,1.7,0.9c0.3,0,0.4,0.2,0.4,0.5c0,0.4-0.5,0.6-1.5,0.6c-1.8,0-2.7-0.8-2.7-2.3c0-1.7,1.4-4,4.1-6.8c3.4-3.5,5.2-5.4,5.5-5.9c0-0.2-0.1-0.4-0.4-0.4c-1.1,0-4,2-8.7,5.9c-3.5,2.9-6.2,5.4-8.4,7.5c-0.8,0.8-1.5,1.5-2.1,1.9c-0.3,0-0.6-0.2-0.9-0.6c-0.3-0.4-0.4-0.8-0.4-1.1c0-0.5,1.4-2.5,4.2-6.1l4.9-6.2c-2,1.9-4.5,4-7.5,6.3l-5.9,4.5c-3,2-5.3,3.1-6.9,3.1c-0.2,0-0.4-0.1-0.4-0.4c0-0.4,0.2-0.6,0.6-0.7c1.7-0.4,3.2-1,4.5-1.9c2.4-1.5,6-4.3,10.9-8.3l6.2-5.3c1.3-1.1,5-5.2,11-12.2c5.4-6.3,8.4-9.5,8.9-9.5c0.7,0,1.1,0.5,1.1,1.4c0,0.6-2.1,3.4-6.2,8.3L304.3,227.9z" stroke="white" stroke-width="6" mask="url(#path-5-inside-1)"/>
<path class="signature12" d="M323.5,230c-1,0.2-3,1.2-5.8,2.8c-2.5,1.4-4.4,2.2-5.7,2.2c-0.2,0-0.4-0.1-0.4-0.4c0-0.4,0.3-0.6,0.8-0.7c1.3-0.2,3-1,5.3-2.3c2.5-1.4,4.6-2.3,6.2-2.7c0.9-2.3,2.9-4.7,5.9-7.2c3.2-2.7,5.8-4.1,8.1-4.1c1.6,0,2.5,0.7,2.5,2.1c0,1.8-1.7,3.8-5.2,6c-2.6,1.6-5.2,2.9-7.9,3.8c-0.3,0.7-0.4,1.3-0.4,2.1c0,1.1,0.4,1.8,1.1,2.1c0.4,0.1,1.1,0.2,2.1,0.3c0.7,0,1.1,0.2,1.1,0.5c0,0.5-1.3,0.8-3.8,0.8c-2.7,0-4-1.2-4-3.5C323.3,231.2,323.4,230.7,323.5,230z M327.6,228.3c1.9-0.9,3.9-2.2,6-3.8c2.8-2.1,4.2-3.7,4.2-4.9c0-0.5-0.2-0.7-0.7-0.7c-1.3,0-3.2,1.2-5.5,3.7C329.6,224.8,328.2,226.7,327.6,228.3z" stroke="white" stroke-width="6" mask="url(#path-5-inside-1)"/>
<defs>
	<style>
		.signature1{
			stroke-dasharray: 800;
			stroke-dashoffset: 800;
			-webkit-animation: dash 1s linear forwards 0.5s;
			-o-animation: dash 1s linear forwards 0.5s;
			-moz-animation: dash 1s linear forwards 0.5s;
			animation: dash 1s linear forwards 0.5s;
		}
		.signature2{
			stroke-dasharray: 800;
			stroke-dashoffset: 800;
			-webkit-animation: dash 1s linear forwards 0.7s;
			-o-animation: dash 1s linear forwards 0.7s;
			-moz-animation: dash 1s linear forwards 0.7s;
			animation: dash 1s linear forwards 0.7s;
		}
		.signature3{
			stroke-dasharray: 800;
			stroke-dashoffset: 800;
			-webkit-animation: dash 1s linear forwards 0.9s;
			-o-animation: dash 1s linear forwards 0.9s;
			-moz-animation: dash 1s linear forwards 0.9s;
			animation: dash 1s linear forwards 0.9s;
		}
		.signature4{
			stroke-dasharray: 800;
			stroke-dashoffset: 800;
			-webkit-animation: dash 1s linear forwards 1.1s;
			-o-animation: dash 1s linear forwards 1.1s;
			-moz-animation: dash 1s linear forwards 1.1s;
			animation: dash 1s linear forwards 1.1s;
		}
		.signature5{
			stroke-dasharray: 800;
			stroke-dashoffset: 800;
			-webkit-animation: dash 1s linear forwards 1.3s;
			-o-animation: dash 1s linear forwards 1.3s;
			-moz-animation: dash 1s linear forwards 1.3s;
			animation: dash 1s linear forwards 1.3s;
		}
		.signature6{
			stroke-dasharray: 800;
			stroke-dashoffset: 800;
			-webkit-animation: dash 1s linear forwards 1.5s;
			-o-animation: dash 1s linear forwards 1.5s;
			-moz-animation: dash 1s linear forwards 1.5s;
			animation: dash 1s linear forwards 1.5s;
		}
		.signature7{
			stroke-dasharray: 800;
			stroke-dashoffset: 800;
			-webkit-animation: dash 1s linear forwards 1.7s;
			-o-animation: dash 1s linear forwards 1.7s;
			-moz-animation: dash 1s linear forwards 1.7s;
			animation: dash 1s linear forwards 1.7s;
		}
		.signature8{
			stroke-dasharray: 800;
			stroke-dashoffset: 800;
			-webkit-animation: dash 1s linear forwards 1.9s;
			-o-animation: dash 1s linear forwards 1.9s;
			-moz-animation: dash 1s linear forwards 1.9s;
			animation: dash 1s linear forwards 1.9s;
		}
		.signature9{
			stroke-dasharray: 800;
			stroke-dashoffset: 800;
			-webkit-animation: dash 1s linear forwards 2.1s;
			-o-animation: dash 1s linear forwards 2.1s;
			-moz-animation: dash 1s linear forwards 2.1s;
			animation: dash 1s linear forwards 2.1s;
		}
		.signature10{
			stroke-dasharray: 800;
			stroke-dashoffset: 800;
			-webkit-animation: dash 1s linear forwards 2.3s;
			-o-animation: dash 1s linear forwards 2.3s;
			-moz-animation: dash 1s linear forwards 2.3s;
			animation: dash 1s linear forwards 2.3s;
		}
		.signature11{
			stroke-dasharray: 800;
			stroke-dashoffset: 800;
			-webkit-animation: dash 1s linear forwards 2.5s;
			-o-animation: dash 1s linear forwards 2.5s;
			-moz-animation: dash 1s linear forwards 2.5s;
			animation: dash 1s linear forwards 2.5s;
		}
		.signature12{
			stroke-dasharray: 800;
			stroke-dashoffset: 800;
			-webkit-animation: dash 1s linear forwards 2.7s;
			-o-animation: dash 1s linear forwards 2.7s;
			-moz-animation: dash 1s linear forwards 2.7s;
			animation: dash 1s linear forwards 2.7s;
		}
		.signature{
			stroke-dasharray: 800;
			stroke-dashoffset: 800;
			-webkit-animation: dash 6s linear forwards 0.5s;
			-o-animation: dash 6s linear forwards 0.5s;
			-moz-animation: dash 6s linear forwards 0.5s;
			animation: dash 6s linear forwards 0.5s;
		}

		.letter{
			opacity: 0;
			<!-- stroke-dasharray: 800;
			stroke-dashoffset: 800; -->
			<!-- -webkit-animation: dash 4s linear forwards 2s;
			-o-animation: dash 4s linear forwards 2s;
			-moz-animation: dash 4s linear forwards 2s;
			animation: dash 4s linear forwards 2s; -->
			-webkit-animation: fadein 2s linear forwards 2.5s;
			-o-animation: fadein 2s linear forwards 2.5s;
			-moz-animation: fadein 2s linear forwards 2.5s;
			animation: fadein 2s linear forwards 2.5s;
		}

		@-webkit-keyframes fadein{
			from{
				<!-- stroke-dashoffset: 800; -->
				opacity: 0;
			}
			to{
				<!-- stroke-dashoffset: 0; -->
				opacity: 1;
			}
		}
		.myHexagon{
			stroke-dasharray: 800;
			stroke-dashoffset: 800;
			-webkit-animation: dash 4s linear forwards 0.5s;
			-o-animation: dash 4s linear forwards 0.5s;
			-moz-animation: dash 4s linear forwards 0.5s;
			animation: dash 4s linear forwards 0.5s;
		}

		@-webkit-keyframes dash{
			from{
				stroke-dashoffset: 800;
			}
			to{
				stroke-dashoffset: 0;
			}
		}
	</style>
</defs>


</svg>
